<svg width="143" height="276" viewBox="0 0 143 276" fill="none" xmlns="http://www.w3.org/2000/svg">
<path d="M2.15285 0.924207C1.61719 0.789695 1.07391 1.11489 0.939402 1.65054C0.804889 2.1862 1.13008 2.72947 1.66573 2.86398L2.15285 0.924207ZM115.978 274.882C116.181 275.396 116.762 275.648 117.275 275.445L125.648 272.143C126.161 271.94 126.414 271.359 126.211 270.846C126.008 270.332 125.428 270.08 124.914 270.282L117.472 273.218L114.536 265.776C114.334 265.262 113.753 265.01 113.239 265.213C112.725 265.415 112.473 265.996 112.676 266.51L115.978 274.882ZM117.826 274.913C118.099 274.284 118.37 273.656 118.638 273.029L116.799 272.242C116.533 272.866 116.263 273.491 115.991 274.117L117.826 274.913ZM120.218 269.282C120.734 268.038 121.241 266.799 121.738 265.565L119.882 264.818C119.388 266.045 118.884 267.278 118.371 268.515L120.218 269.282ZM123.199 261.876C123.679 260.643 124.149 259.415 124.61 258.192L122.739 257.487C122.28 258.703 121.813 259.924 121.335 261.15L123.199 261.876ZM126.027 254.362C126.488 253.091 126.939 251.825 127.379 250.564L125.491 249.905C125.053 251.157 124.605 252.416 124.147 253.679L126.027 254.362ZM128.668 246.798C129.087 245.548 129.496 244.304 129.894 243.065L127.99 242.453C127.595 243.684 127.188 244.92 126.772 246.162L128.668 246.798ZM131.118 239.168C131.516 237.873 131.901 236.584 132.276 235.301L130.356 234.741C129.984 236.015 129.601 237.295 129.206 238.581L131.118 239.168ZM133.365 231.47C133.718 230.196 134.06 228.928 134.391 227.666L132.456 227.159C132.128 228.412 131.788 229.671 131.438 230.937L133.365 231.47ZM135.396 223.708C135.719 222.395 136.03 221.089 136.329 219.789L134.38 219.34C134.083 220.63 133.774 221.927 133.454 223.23L135.396 223.708ZM137.19 215.908C137.47 214.601 137.737 213.3 137.993 212.006L136.031 211.619C135.777 212.902 135.512 214.193 135.234 215.49L137.19 215.908ZM138.747 208.01C138.986 206.685 139.212 205.368 139.426 204.057L137.452 203.735C137.24 205.035 137.016 206.341 136.779 207.655L138.747 208.01ZM140.029 200.146C140.225 198.801 140.407 197.465 140.577 196.136L138.593 195.883C138.425 197.2 138.244 198.525 138.05 199.857L140.029 200.146ZM141.05 192.125C141.195 190.795 141.327 189.474 141.445 188.16L139.453 187.98C139.336 189.282 139.206 190.591 139.062 191.908L141.05 192.125ZM141.766 184.176C141.863 182.818 141.945 181.468 142.014 180.126L140.016 180.024C139.948 181.353 139.867 182.689 139.771 184.034L141.766 184.176ZM142.179 176.127C142.22 174.795 142.248 173.471 142.262 172.156L140.262 172.134C140.248 173.436 140.221 174.746 140.18 176.064L142.179 176.127ZM142.264 168.089C142.25 166.743 142.221 165.405 142.179 164.076L140.18 164.14C140.222 165.454 140.25 166.778 140.264 168.11L142.264 168.089ZM142.011 160.114C141.938 158.751 141.85 157.398 141.748 156.054L139.754 156.206C139.855 157.535 139.942 158.873 140.014 160.221L142.011 160.114ZM141.398 152.052C141.266 150.726 141.121 149.409 140.961 148.103L138.976 148.345C139.134 149.637 139.278 150.938 139.407 152.249L141.398 152.052ZM140.421 144.075C140.226 142.743 140.016 141.42 139.791 140.108L137.82 140.445C138.042 141.741 138.249 143.048 138.442 144.365L140.421 144.075ZM139.073 136.185C138.812 134.851 138.535 133.528 138.245 132.216L136.292 132.648C136.579 133.945 136.852 135.251 137.11 136.569L139.073 136.185ZM137.329 128.311C137.006 127.007 136.668 125.715 136.317 124.433L134.388 124.962C134.735 126.228 135.069 127.504 135.387 128.792L137.329 128.311ZM135.198 120.548C134.81 119.265 134.408 117.992 133.992 116.731L132.093 117.358C132.504 118.603 132.9 119.859 133.283 121.127L135.198 120.548ZM132.682 112.922C132.226 111.652 131.757 110.394 131.273 109.147L129.409 109.87C129.886 111.101 130.349 112.343 130.799 113.597L132.682 112.922ZM129.781 105.442C129.259 104.192 128.723 102.954 128.174 101.728L126.349 102.546C126.891 103.757 127.421 104.978 127.936 106.212L129.781 105.442ZM126.483 98.0846C125.902 96.8733 125.308 95.6741 124.7 94.4869L122.92 95.3979C123.52 96.5699 124.107 97.7538 124.68 98.9495L126.483 98.0846ZM122.817 90.9203C122.177 89.7437 121.523 88.5794 120.857 87.4273L119.126 88.428C119.783 89.5656 120.428 90.7151 121.061 91.8768L122.817 90.9203ZM118.794 83.9604C118.092 82.8141 117.378 81.6804 116.652 80.5592L114.973 81.6462C115.69 82.7535 116.396 83.873 117.089 85.0049L118.794 83.9604ZM114.428 77.2167C113.668 76.1043 112.896 75.0046 112.113 73.9176L110.49 75.0866C111.264 76.1603 112.026 77.2465 112.777 78.3452L114.428 77.2167ZM109.731 70.6947C108.917 69.6207 108.092 68.5597 107.257 67.5116L105.693 68.758C106.518 69.7936 107.333 70.8419 108.137 71.9029L109.731 70.6947ZM104.716 64.3999C103.854 63.37 102.982 62.3531 102.101 61.3491L100.598 62.6682C101.469 63.6605 102.33 64.6656 103.182 65.6833L104.716 64.3999ZM99.4114 58.3545C98.5052 57.369 97.5901 56.3965 96.6665 55.437L95.2256 56.8239C96.1387 57.7726 97.0434 58.734 97.9391 59.7082L99.4114 58.3545ZM93.8369 52.5631C92.8854 51.6184 91.9259 50.6868 90.9589 49.7683L89.5815 51.2184C90.5379 52.1268 91.4869 53.0481 92.4277 53.9823L93.8369 52.5631ZM88.0115 47.0298C87.0175 46.1263 86.0163 45.236 85.0087 44.3591L83.6957 45.8677C84.6926 46.7353 85.683 47.616 86.6663 48.5098L88.0115 47.0298ZM81.9542 41.7573C80.9203 40.8953 79.8803 40.0469 78.8348 39.2118L77.5866 40.7745C78.6213 41.6009 79.6504 42.4405 80.6735 43.2934L81.9542 41.7573ZM75.6826 36.7469C74.6114 35.9268 73.5352 35.1204 72.4547 34.3277L71.2716 35.9402C72.3413 36.725 73.4066 37.5232 74.4669 38.3349L75.6826 36.7469ZM69.2001 31.9899C68.0985 31.2152 66.9932 30.4543 65.8847 29.7072L64.7669 31.3657C65.8645 32.1055 66.959 32.8588 68.0496 33.6258L69.2001 31.9899ZM62.5345 27.4969C61.4053 26.7676 60.2735 26.0524 59.1399 25.3511L58.0877 27.0519C59.2104 27.7465 60.3312 28.4548 61.4495 29.177L62.5345 27.4969ZM55.7003 23.2687C54.5458 22.5849 53.3901 21.9153 52.234 21.2598L51.2476 22.9997C52.3928 23.6489 53.5375 24.3121 54.681 24.9895L55.7003 23.2687ZM48.7104 19.3064C47.5327 18.668 46.3552 18.0443 45.1789 17.4349L44.259 19.2109C45.4244 19.8144 46.5907 20.4324 47.7573 21.0647L48.7104 19.3064ZM41.5763 15.6121C40.3769 15.0194 39.1794 14.4417 37.9846 13.8789L37.1323 15.6882C38.3159 16.2457 39.5022 16.818 40.6903 17.4051L41.5763 15.6121ZM34.3083 12.1897C33.0864 11.6423 31.8681 11.1105 30.6545 10.5941L29.8715 12.4345C31.0736 12.9459 32.2802 13.4727 33.4907 14.0149L34.3083 12.1897ZM26.915 9.04557C25.6725 8.54511 24.436 8.06101 23.2063 7.59313L22.495 9.46239C23.7127 9.92571 24.9373 10.4051 26.1678 10.9007L26.915 9.04557ZM19.4042 6.18978C18.1402 5.7376 16.8846 5.30283 15.6387 4.88529L15.0032 6.78164C16.2363 7.19489 17.4791 7.62526 18.7306 8.07292L19.4042 6.18978ZM11.7837 3.6383C10.4945 3.23637 9.21723 2.85337 7.95314 2.48911L7.39936 4.41092C8.64947 4.77115 9.91291 5.14999 11.1884 5.54766L11.7837 3.6383ZM4.06339 1.41589C3.42259 1.24701 2.78568 1.08314 2.15285 0.924207L1.66573 2.86398C2.29099 3.021 2.92038 3.18295 3.55373 3.34985L4.06339 1.41589Z" fill="#4CC2FF"/>
</svg>
