<svg width="439" height="228" viewBox="0 0 439 228" fill="none" xmlns="http://www.w3.org/2000/svg">
<path d="M438.003 1.61702C438.059 1.06761 437.659 0.576607 437.11 0.52034C436.56 0.464073 436.069 0.863846 436.013 1.41326L438.003 1.61702ZM7.24422 227.331C7.63474 227.721 8.26791 227.721 8.65843 227.331L15.0224 220.967C15.4129 220.576 15.4129 219.943 15.0224 219.553C14.6319 219.162 13.9987 219.162 13.6082 219.553L7.95132 225.21L2.29447 219.553C1.90394 219.162 1.27078 219.162 0.880256 219.553C0.489731 219.943 0.489731 220.576 0.880256 220.967L7.24422 227.331ZM8.95132 226.624C8.95132 225.993 8.96987 225.353 9.00688 224.705L7.01013 224.591C6.97102 225.276 6.95132 225.954 6.95132 226.624H8.95132ZM9.43925 220.78C9.64247 219.514 9.90873 218.222 10.2373 216.903L8.29662 216.42C7.95524 217.789 7.6773 219.138 7.46455 220.463L9.43925 220.78ZM11.3262 213.126C11.7279 211.894 12.1797 210.643 12.6807 209.375L10.8206 208.64C10.3054 209.944 9.83971 211.233 9.42472 212.506L11.3262 213.126ZM14.2478 205.7C14.785 204.524 15.3617 203.336 15.9775 202.136L14.198 201.223C13.5691 202.449 12.9791 203.664 12.4288 204.868L14.2478 205.7ZM17.899 198.576C18.5357 197.451 19.205 196.316 19.9061 195.174L18.2016 194.128C17.4884 195.29 16.8072 196.444 16.1583 197.591L17.899 198.576ZM22.0738 191.77C22.7924 190.68 23.5389 189.584 24.3127 188.483L22.676 187.333C21.8914 188.45 21.134 189.562 20.4043 190.669L22.0738 191.77ZM26.6767 185.214C27.4589 184.162 28.2651 183.106 29.0951 182.046L27.5203 180.813C26.6804 181.885 25.8642 182.955 25.0719 184.02L26.6767 185.214ZM31.6247 178.892C32.4572 177.878 33.3108 176.861 34.185 175.842L32.6669 174.54C31.7836 175.57 30.9208 176.597 30.079 177.622L31.6247 178.892ZM36.8604 172.787C37.7337 171.81 38.6254 170.831 39.5354 169.851L38.0698 168.49C37.1514 169.479 36.2511 170.467 35.3693 171.454L36.8604 172.787ZM42.32 166.908C43.2342 165.958 44.1653 165.008 45.1128 164.058L43.6964 162.646C42.7409 163.604 41.8019 164.562 40.8796 165.52L42.32 166.908ZM47.98 161.229C48.9354 160.302 49.9062 159.375 50.8923 158.448L49.5225 156.991C48.5288 157.925 47.5503 158.86 46.5872 159.794L47.98 161.229ZM53.8295 155.729C54.823 154.823 55.8308 153.918 56.8528 153.014L55.5274 151.516C54.4981 152.427 53.4829 153.339 52.482 154.251L53.8295 155.729ZM59.8527 150.397C60.8651 149.526 61.8904 148.657 62.9284 147.789L61.6454 146.254C60.6004 147.128 59.568 148.004 58.5486 148.88L59.8527 150.397ZM66.0365 145.225C67.0657 144.388 68.1067 143.552 69.1592 142.718L67.9174 141.151C66.8581 141.99 65.8103 142.831 64.7743 143.674L66.0365 145.225ZM72.3512 140.223C73.4018 139.413 74.4632 138.605 75.5353 137.799L74.3337 136.2C73.2549 137.011 72.1869 137.824 71.1297 138.64L72.3512 140.223ZM78.7644 135.403C79.8486 134.609 80.9431 133.817 82.0478 133.028L80.8856 131.401C79.7743 132.194 78.6732 132.991 77.5825 133.79L78.7644 135.403ZM85.312 130.727C86.4097 129.962 87.5169 129.201 88.6335 128.443L87.5099 126.788C86.3869 127.551 85.2732 128.317 84.1691 129.085L85.312 130.727ZM91.9862 126.194C93.0944 125.46 94.2114 124.73 95.3371 124.002L94.2518 122.322C93.1198 123.054 91.9965 123.789 90.8819 124.527L91.9862 126.194ZM98.7399 121.831C99.8715 121.118 101.011 120.409 102.159 119.703L101.112 117.999C99.9579 118.709 98.8116 119.422 97.6737 120.139L98.7399 121.831ZM105.588 117.623C106.738 116.933 107.897 116.247 109.063 115.566L108.054 113.839C106.881 114.524 105.716 115.214 104.559 115.907L105.588 117.623ZM112.547 113.555C113.706 112.894 114.872 112.238 116.045 111.586L115.074 109.838C113.894 110.493 112.722 111.153 111.557 111.817L112.547 113.555ZM119.586 109.644C120.761 109.008 121.944 108.376 123.133 107.749L122.2 105.98C121.004 106.61 119.815 107.246 118.634 107.886L119.586 109.644ZM126.694 105.894C127.888 105.281 129.088 104.672 130.295 104.069L129.4 102.28C128.187 102.887 126.98 103.499 125.78 104.116L126.694 105.894ZM133.902 102.288C135.103 101.704 136.309 101.124 137.522 100.55L136.665 98.7422C135.446 99.3197 134.233 99.9023 133.027 100.49L133.902 102.288ZM141.177 98.8419C142.393 98.2817 143.615 97.7268 144.843 97.1772L144.025 95.3518C142.791 95.9043 141.563 96.4622 140.34 97.0254L141.177 98.8419ZM148.516 95.5566C149.745 95.0218 150.981 94.4925 152.222 93.9688L151.444 92.1262C150.197 92.6527 148.955 93.1848 147.718 93.7225L148.516 95.5566ZM155.943 92.4221C157.178 91.9162 158.419 91.416 159.665 90.9216L158.928 89.0626C157.675 89.5597 156.427 90.0626 155.185 90.5711L155.943 92.4221ZM163.418 89.4561C164.671 88.9747 165.929 88.4993 167.191 88.0299L166.495 86.1553C165.225 86.6272 163.96 87.1052 162.701 87.5892L163.418 89.4561ZM170.96 86.6525C172.221 86.1994 173.486 85.7525 174.756 85.3119L174.101 83.4224C172.824 83.8654 171.551 84.3148 170.283 84.7703L170.96 86.6525ZM178.578 84.0096C179.844 83.5861 181.114 83.1689 182.389 82.7582L181.775 80.8546C180.494 81.2676 179.217 81.6871 177.944 82.1129L178.578 84.0096ZM186.225 81.5457C187.508 81.1481 188.795 80.7571 190.086 80.3729L189.515 78.4559C188.217 78.8423 186.923 79.2355 185.633 79.6353L186.225 81.5457ZM193.942 79.249C195.229 78.8817 196.519 78.5213 197.814 78.1678L197.287 76.2384C195.985 76.594 194.687 76.9564 193.393 77.3257L193.942 79.249ZM201.709 77.1282C203.005 76.7904 204.304 76.4595 205.607 76.1357L205.125 74.1948C203.814 74.5203 202.508 74.8531 201.204 75.1929L201.709 77.1282ZM209.512 75.1896C210.817 74.8815 212.125 74.5805 213.437 74.2869L213 72.3352C211.681 72.6305 210.365 72.9332 209.052 73.2432L209.512 75.1896ZM217.374 73.4304C218.682 73.1539 219.993 72.8848 221.307 72.6232L220.916 70.6617C219.594 70.9248 218.276 71.1955 216.96 71.4736L217.374 73.4304ZM225.259 71.8612C226.579 71.6148 227.902 71.3761 229.228 71.1452L228.885 69.1749C227.551 69.4072 226.22 69.6473 224.892 69.8951L225.259 71.8612ZM233.186 70.4809C234.508 70.2672 235.832 70.0614 237.159 69.8636L236.865 67.8854C235.529 68.0845 234.197 68.2916 232.867 68.5065L233.186 70.4809ZM241.149 69.294C242.475 69.1131 243.804 68.9402 245.135 68.7754L244.89 66.7905C243.55 66.9563 242.213 67.1303 240.879 67.3124L241.149 69.294ZM249.126 68.3068C250.458 68.1588 251.793 68.019 253.131 67.8876L252.935 65.8972C251.589 66.0294 250.246 66.1701 248.905 66.319L249.126 68.3068ZM257.141 67.5193C258.472 67.4056 259.806 67.3002 261.142 67.2033L260.998 65.2086C259.653 65.3061 258.311 65.4121 256.97 65.5266L257.141 67.5193ZM265.157 66.9384C266.497 66.8586 267.839 66.7875 269.183 66.7251L269.09 64.7273C267.738 64.7901 266.387 64.8616 265.038 64.9419L265.157 66.9384ZM273.193 66.5654C274.531 66.5208 275.87 66.4851 277.211 66.4582L277.171 64.4586C275.821 64.4857 274.473 64.5217 273.127 64.5665L273.193 66.5654ZM281.239 66.4042C281.911 66.3997 282.584 66.3975 283.257 66.3975V64.3975C282.579 64.3975 281.902 64.3997 281.225 64.4043L281.239 66.4042ZM283.257 66.3975C283.947 66.3975 284.634 66.396 285.318 66.3931L285.31 64.3931C284.628 64.396 283.944 64.3975 283.257 64.3975V66.3975ZM289.39 66.3584C290.736 66.3411 292.071 66.3182 293.394 66.2896L293.351 64.2901C292.033 64.3185 290.705 64.3414 289.365 64.3586L289.39 66.3584ZM297.48 66.1827C298.84 66.1409 300.188 66.093 301.523 66.0392L301.443 64.0408C300.113 64.0943 298.772 64.142 297.418 64.1837L297.48 66.1827ZM305.545 65.8579C306.918 65.7893 308.277 65.7144 309.624 65.6333L309.503 63.6369C308.164 63.7176 306.811 63.7921 305.445 63.8604L305.545 65.8579ZM313.624 65.3715C314.996 65.2745 316.355 65.1709 317.7 65.061L317.537 63.0676C316.2 63.177 314.848 63.28 313.483 63.3765L313.624 65.3715ZM321.723 64.7094C323.082 64.5828 324.426 64.4495 325.756 64.3098L325.547 62.3208C324.225 62.4597 322.889 62.5921 321.537 62.718L321.723 64.7094ZM329.793 63.8608C331.142 63.7023 332.476 63.5371 333.794 63.3652L333.535 61.382C332.225 61.5527 330.9 61.717 329.56 61.8745L329.793 63.8608ZM337.835 62.8108C339.177 62.6176 340.502 62.4173 341.81 62.2104L341.498 60.2349C340.198 60.4405 338.882 60.6393 337.55 60.8313L337.835 62.8108ZM345.844 61.5422C347.181 61.3107 348.5 61.072 349.801 60.8263L349.43 58.8611C348.139 59.1048 346.83 59.3418 345.503 59.5716L345.844 61.5422ZM353.813 60.0357C355.146 59.7618 356.46 59.4805 357.755 59.1919L357.32 57.2398C356.036 57.5259 354.733 57.8049 353.411 58.0766L353.813 60.0357ZM361.729 58.2698C363.059 57.9487 364.368 57.6199 365.656 57.2837L365.151 55.3485C363.875 55.6816 362.578 56.0074 361.26 56.3257L361.729 58.2698ZM369.573 56.2211C370.899 55.8474 372.202 55.4657 373.481 55.0764L372.899 53.1629C371.633 53.5482 370.343 53.926 369.03 54.2961L369.573 56.2211ZM377.318 53.8646C378.638 53.4321 379.932 52.9915 381.2 52.5431L380.533 50.6575C379.28 51.1007 378.001 51.5364 376.696 51.9641L377.318 53.8646ZM385.009 51.1447C386.29 50.6564 387.544 50.1602 388.77 49.6566L388.01 47.8066C386.8 48.3036 385.562 48.7935 384.297 49.2757L385.009 51.1447ZM392.535 48.0497C393.798 47.4899 395.029 46.9221 396.23 46.347L395.366 44.5431C394.183 45.1097 392.97 45.6693 391.724 46.2214L392.535 48.0497ZM399.857 44.5411C401.088 43.904 402.284 43.2592 403.445 42.6078L402.467 40.8634C401.325 41.5038 400.149 42.1379 398.938 42.765L399.857 44.5411ZM406.976 40.5438C408.164 39.8201 409.312 39.0895 410.422 38.3533L409.316 36.6869C408.228 37.4086 407.102 38.1253 405.936 38.8359L406.976 40.5438ZM413.775 36.0272C414.903 35.2083 415.986 34.3842 417.025 33.5563L415.779 31.9922C414.764 32.801 413.705 33.6069 412.6 34.4084L413.775 36.0272ZM420.16 30.932C421.212 30.0052 422.211 29.0758 423.16 28.146L421.759 26.718C420.837 27.6224 419.864 28.5275 418.838 29.431L420.16 30.932ZM426.002 25.1919C426.95 24.1465 427.835 23.1034 428.659 22.0656L427.093 20.8214C426.296 21.8247 425.439 22.8349 424.521 23.8488L426.002 25.1919ZM431.095 18.7667C431.9 17.5882 432.628 16.4209 433.284 15.2696L431.546 14.2797C430.918 15.3827 430.218 16.5039 429.443 17.6386L431.095 18.7667ZM435.166 11.5854C435.762 10.2659 436.262 8.97565 436.67 7.72252L434.769 7.10254C434.384 8.28374 433.911 9.50608 433.343 10.7618L435.166 11.5854ZM437.704 3.69415C437.834 2.98443 437.934 2.29143 438.003 1.61702L436.013 1.41326C435.95 2.03262 435.858 2.6727 435.737 3.33179L437.704 3.69415Z" fill="#4CC2FF"/>
</svg>
