<svg width="301" height="240" viewBox="0 0 301 240" fill="none" xmlns="http://www.w3.org/2000/svg">
<path d="M1.90625 0.746684C1.35397 0.746684 0.90625 1.1944 0.90625 1.74668C0.90625 2.29897 1.35397 2.74668 1.90625 2.74668V0.746684ZM292.166 239.178C292.557 239.568 293.19 239.568 293.58 239.178L299.944 232.814C300.335 232.423 300.335 231.79 299.944 231.4C299.554 231.009 298.921 231.009 298.53 231.4L292.873 237.056L287.216 231.4C286.826 231.009 286.193 231.009 285.802 231.4C285.412 231.79 285.412 232.423 285.802 232.814L292.166 239.178ZM1.90625 2.74668C2.57044 2.74668 3.23457 2.74865 3.8986 2.75259L3.91046 0.752627C3.24247 0.748666 2.5744 0.746684 1.90625 0.746684V2.74668ZM7.88171 2.79977C9.209 2.82334 10.5359 2.85473 11.8622 2.8939L11.9212 0.894775C10.5871 0.855367 9.25237 0.82379 7.91721 0.800086L7.88171 2.79977ZM15.8397 3.03477C17.1671 3.08958 18.4939 3.15216 19.8199 3.22248L19.9258 1.22528C18.592 1.15455 17.2574 1.0916 15.9222 1.03647L15.8397 3.03477ZM23.7956 3.4566C25.12 3.54234 26.4435 3.63579 27.7661 3.73689L27.9186 1.74271C26.5883 1.64102 25.257 1.54703 23.9248 1.46077L23.7956 3.4566ZM31.7357 4.06355C33.0589 4.18018 34.3811 4.30446 35.702 4.43634L35.9007 2.44624C34.5721 2.31358 33.2422 2.18858 31.9113 2.07127L31.7357 4.06355ZM39.6613 4.85479C40.9803 5.0019 42.298 5.15659 43.6144 5.31882L43.859 3.33384C42.535 3.17067 41.2097 3.01508 39.883 2.86711L39.6613 4.85479ZM47.567 5.82913C48.883 6.00678 50.1976 6.19194 51.5106 6.38459L51.8009 4.40578C50.4804 4.21202 49.1582 4.02578 47.8345 3.84711L47.567 5.82913ZM55.4445 6.98496C56.7568 7.19296 58.0674 7.40843 59.3761 7.63134L59.7119 5.65973C58.3956 5.43554 57.0775 5.21882 55.7576 5.00962L55.4445 6.98496ZM63.2996 8.32287C64.6056 8.5608 65.9096 8.80613 67.2116 9.05883L67.5927 7.09547C66.2832 6.84131 64.9716 6.59456 63.6581 6.35526L63.2996 8.32287ZM71.115 9.83976C72.417 10.108 73.7168 10.3836 75.0143 10.6666L75.4404 8.71254C74.1354 8.42794 72.8281 8.15072 71.5187 7.88091L71.115 9.83976ZM78.8999 11.5375C80.1927 11.835 81.4832 12.1399 82.7712 12.452L83.2422 10.5083C81.9468 10.1944 80.6488 9.88772 79.3485 9.58842L78.8999 11.5375ZM86.6401 13.4133C87.9277 13.7411 89.2127 14.0762 90.495 14.4185L91.0108 12.4862C89.7211 12.1419 88.4286 11.8048 87.1336 11.4751L86.6401 13.4133ZM94.3335 15.467C95.6127 15.8244 96.8892 16.1891 98.1626 16.5609L98.7231 14.641C97.4422 14.267 96.1584 13.9003 94.8716 13.5408L94.3335 15.467ZM101.982 17.7002C103.252 18.0871 104.519 18.4812 105.783 18.8824L106.388 16.9761C105.117 16.5726 103.843 16.1762 102.565 15.787L101.982 17.7002ZM109.567 20.1078C110.83 20.5251 112.09 20.9496 113.347 21.3811L113.996 19.4896C112.732 19.0555 111.465 18.6285 110.194 18.2088L109.567 20.1078ZM117.105 22.697C118.355 23.1427 119.601 23.5954 120.843 24.0551L121.537 22.1795C120.288 21.717 119.034 21.2615 117.777 20.8132L117.105 22.697ZM124.573 25.4606C125.814 25.9368 127.051 26.42 128.284 26.9102L129.023 25.0517C127.782 24.5585 126.538 24.0724 125.289 23.5933L124.573 25.4606ZM131.972 28.4018C133.2 28.907 134.424 29.4192 135.644 29.9383L136.427 28.0981C135.2 27.5758 133.969 27.0605 132.733 26.5522L131.972 28.4018ZM139.303 31.522C140.519 32.0569 141.73 32.5987 142.936 33.1474L143.764 31.3267C142.55 30.7747 141.332 30.2295 140.109 29.6914L139.303 31.522ZM146.544 34.8144C147.749 35.3803 148.949 35.953 150.145 36.5327L151.017 34.733C149.814 34.1497 148.606 33.5734 147.394 33.0041L146.544 34.8144ZM153.717 38.2922C154.903 38.8856 156.085 39.4858 157.261 40.0928L158.178 38.3155C156.994 37.7046 155.806 37.1006 154.612 36.5035L153.717 38.2922ZM160.791 41.9428C161.964 42.5674 163.133 43.1988 164.296 43.8371L165.258 42.0837C164.088 41.4413 162.912 40.8058 161.73 40.1773L160.791 41.9428ZM167.77 45.7721C168.926 46.4258 170.077 47.0862 171.222 47.7534L172.229 46.0254C171.076 45.3538 169.918 44.6891 168.755 44.0312L167.77 45.7721ZM174.653 49.783C175.791 50.4663 176.924 51.1563 178.05 51.8531L179.102 50.152C177.968 49.4507 176.828 48.7561 175.682 48.0683L174.653 49.783ZM181.416 53.9657C182.539 54.6807 183.656 55.4026 184.766 56.1311L185.863 54.4588C184.745 53.7253 183.621 52.9986 182.491 52.2788L181.416 53.9657ZM188.079 58.3366C189.177 59.0785 190.269 59.827 191.355 60.5821L192.497 58.9403C191.404 58.18 190.304 57.4263 189.199 56.6794L188.079 58.3366ZM194.613 62.8822C195.693 63.6561 196.766 64.4366 197.833 65.2237L199.021 63.6143C197.946 62.8217 196.865 62.0357 195.777 61.2564L194.613 62.8822ZM201.013 67.6048C202.072 68.409 203.123 69.2198 204.168 70.0372L205.4 68.4622C204.348 67.6389 203.289 66.8223 202.223 66.0123L201.013 67.6048ZM207.286 72.5147C208.319 73.347 209.344 74.186 210.362 75.0314L211.64 73.4929C210.615 72.6412 209.582 71.7961 208.542 70.9576L207.286 72.5147ZM213.404 77.596C214.414 78.4605 215.417 79.3316 216.412 80.2092L217.735 78.7093C216.732 77.8251 215.722 76.9475 214.704 76.0765L213.404 77.596ZM219.373 82.8613C220.354 83.7537 221.328 84.6525 222.293 85.5577L223.661 84.0987C222.688 83.1865 221.707 82.2808 220.718 81.3816L219.373 82.8613ZM225.179 88.3059C226.133 89.2284 227.078 90.1573 228.015 91.0926L229.428 89.677C228.484 88.7343 227.531 87.798 226.569 86.8683L225.179 88.3059ZM230.804 93.9202C231.731 94.8743 232.648 95.8349 233.557 96.8018L235.014 95.432C234.098 94.4572 233.173 93.4889 232.239 92.5271L230.804 93.9202ZM236.258 99.7216C237.149 100.701 238.031 101.687 238.905 102.679L240.406 101.358C239.525 100.357 238.635 99.3632 237.737 98.3756L236.258 99.7216ZM241.513 105.692C242.373 106.702 243.224 107.719 244.065 108.742L245.61 107.472C244.761 106.44 243.903 105.415 243.036 104.396L241.513 105.692ZM246.561 111.83C247.388 112.87 248.204 113.916 249.011 114.969L250.598 113.752C249.784 112.69 248.961 111.635 248.127 110.586L246.561 111.83ZM251.403 118.146C252.191 119.211 252.968 120.283 253.736 121.36L255.365 120.2C254.591 119.113 253.806 118.032 253.012 116.957L251.403 118.146ZM256.015 124.621C256.766 125.715 257.506 126.815 258.235 127.921L259.905 126.82C259.168 125.704 258.422 124.594 257.665 123.49L256.015 124.621ZM260.392 131.257C261.102 132.377 261.801 133.503 262.489 134.635L264.198 133.596C263.503 132.453 262.798 131.317 262.081 130.186L260.392 131.257ZM264.524 138.051C265.191 139.196 265.848 140.346 266.493 141.503L268.239 140.528C267.588 139.361 266.925 138.199 266.252 137.044L264.524 138.051ZM268.397 144.991C269.02 146.161 269.633 147.336 270.234 148.516L272.016 147.609C271.409 146.417 270.791 145.23 270.161 144.05L268.397 144.991ZM272.003 152.075C272.581 153.267 273.147 154.464 273.702 155.667L275.518 154.829C274.958 153.615 274.386 152.406 273.802 151.203L272.003 152.075ZM275.33 159.291C275.861 160.505 276.381 161.724 276.888 162.949L278.736 162.183C278.223 160.946 277.699 159.715 277.162 158.489L275.33 159.291ZM278.372 166.634C278.854 167.866 279.324 169.104 279.782 170.346L281.659 169.655C281.196 168.4 280.721 167.15 280.235 165.906L278.372 166.634ZM281.118 174.091C281.551 175.342 281.971 176.598 282.379 177.86L284.282 177.245C283.87 175.97 283.446 174.701 283.009 173.437L281.118 174.091ZM283.561 181.648C283.943 182.916 284.312 184.189 284.669 185.467L286.595 184.929C286.235 183.638 285.862 182.352 285.476 181.071L283.561 181.648ZM285.699 189.308C286.027 190.586 286.344 191.87 286.647 193.158L288.594 192.699C288.287 191.398 287.968 190.101 287.636 188.81L285.699 189.308ZM287.519 197.036C287.797 198.332 288.062 199.633 288.314 200.939L290.277 200.56C290.023 199.241 289.755 197.927 289.475 196.617L287.519 197.036ZM289.024 204.834C289.248 206.137 289.459 207.445 289.658 208.758L291.635 208.459C291.435 207.133 291.221 205.812 290.995 204.495L289.024 204.834ZM290.213 212.709C290.383 214.013 290.54 215.322 290.685 216.636L292.673 216.417C292.527 215.09 292.368 213.768 292.196 212.45L290.213 212.709ZM291.078 220.587C291.197 221.909 291.302 223.234 291.394 224.565L293.389 224.426C293.296 223.083 293.19 221.744 293.07 220.409L291.078 220.587ZM291.629 228.518C291.694 229.835 291.746 231.156 291.785 232.481L293.784 232.422C293.745 231.084 293.692 229.75 293.626 228.42L291.629 228.518ZM291.863 236.468C291.87 237.135 291.873 237.802 291.873 238.471H293.873C293.873 237.796 293.87 237.122 293.863 236.449L291.863 236.468Z" fill="#4CC2FF"/>
</svg>
