<svg width="56" height="30" viewBox="0 0 56 30" fill="none" xmlns="http://www.w3.org/2000/svg">
<path d="M51.7345 4.32594C49.7285 0.994835 47.259 -0.423766 44.3956 0.109298C39.1303 1.08622 36.5498 7.51344 33.5646 14.9546C32.7248 17.052 31.8567 19.2082 30.8906 21.3513C28.4298 17.1216 26.761 11.7845 26.7436 11.7279V11.7192C26.687 11.5495 25.3489 7.54172 22.02 6.83242C19.5222 6.30371 16.6741 7.79411 13.5541 11.2688C13.5454 11.2775 13.541 11.284 13.5323 11.2927C12.5184 10.0874 11.2956 9.38242 9.96622 9.23882C8.0276 9.0343 5.88012 10.0047 3.58032 12.1239L3.23438 12.4459L3.48894 12.8441C4.6508 14.6565 6.04112 15.6552 7.62073 15.8096C7.75998 15.8227 7.90141 15.8292 8.04501 15.8292C9.70295 15.8292 11.5001 14.9002 13.3996 13.0573C13.8739 13.8645 14.098 14.5412 14.1002 14.5433C14.2873 15.1526 18.7694 29.443 24.4634 29.9848C24.5787 29.9956 24.6919 30 24.8093 30C26.6957 30 28.4472 28.5096 30.0116 25.5701C30.3162 25.0023 30.623 24.3843 30.9472 23.7055C32.814 26.7407 34.8832 29.3756 37.3135 29.4104H37.3636C39.0193 29.4104 40.5837 28.2137 42.1481 25.7485C44.8177 21.5471 46.7585 16.7061 48.4752 12.4328C49.5783 9.6805 50.6205 7.08046 51.7563 4.86988L51.8999 4.5892L51.7367 4.32158L51.7345 4.32594ZM7.7317 14.6891C6.62423 14.5803 5.60814 13.8906 4.70737 12.633C6.61335 10.9664 8.34091 10.2005 9.8509 10.3659C10.9323 10.479 11.907 11.0686 12.7512 12.1174C10.8866 13.9689 9.20035 14.8327 7.7317 14.6891ZM29.0173 25.0436C27.5878 27.7241 26.093 29.0057 24.5678 28.8643C20.46 28.4748 16.3956 18.1551 15.1728 14.2061C15.1598 14.1626 14.8617 13.2575 14.2133 12.2305C14.2133 12.2305 14.2133 12.2305 14.2133 12.2262L14.222 12.2153C14.2786 12.1522 14.3395 12.0869 14.3961 12.0238C17.2268 8.87547 19.7115 7.49821 21.785 7.93554C24.4438 8.49688 25.634 11.9542 25.6731 12.0673C25.771 12.385 27.566 18.1051 30.264 22.498C29.8245 23.4596 29.4155 24.2951 29.0173 25.0414V25.0436ZM47.4265 12.0195C45.6467 16.4515 43.8082 21.0358 41.1973 25.1502C39.8744 27.2324 38.5842 28.2877 37.3592 28.2877H37.3287C35.2857 28.2572 33.1969 25.2742 31.576 22.5741C32.6922 20.1612 33.6691 17.7308 34.6134 15.3767C37.4745 8.24232 39.9462 2.08054 44.6023 1.21676C46.8826 0.792489 48.9017 1.94565 50.6053 4.64142C49.5065 6.8346 48.4948 9.35414 47.4265 12.0151V12.0195Z" fill="#F9F9F9"/>
<path d="M14.2219 12.2175L14.2129 12.2288C14.2129 12.2288 14.2129 12.2288 14.2129 12.2332L14.2241 12.222V12.2175H14.2219Z" fill="#F9F9F9"/>
</svg>
