<svg width="17" height="17" viewBox="0 0 17 17" fill="none" xmlns="http://www.w3.org/2000/svg">
<g id="star-light">
<path id="Vector" d="M9.37254 2.41258L10.8244 5.87258C10.8595 5.95655 10.9169 6.02934 10.9904 6.08308C11.0639 6.13683 11.1506 6.16951 11.2413 6.17758L14.9575 6.49883C15.0561 6.50676 15.1501 6.54375 15.2277 6.60514C15.3053 6.66652 15.3629 6.74954 15.3933 6.84368C15.4236 6.93783 15.4254 7.03886 15.3983 7.13401C15.3713 7.22916 15.3166 7.31414 15.2412 7.37821L12.4219 9.83758C12.3534 9.89778 12.3024 9.97541 12.2745 10.0622C12.2465 10.1491 12.2426 10.2418 12.2631 10.3307L13.1081 13.9895C13.1305 14.085 13.1242 14.185 13.0901 14.277C13.0559 14.3691 12.9955 14.449 12.9163 14.5069C12.8371 14.5648 12.7425 14.5981 12.6445 14.6027C12.5465 14.6073 12.4493 14.5829 12.365 14.5326L9.17129 12.5951C9.09369 12.5479 9.00461 12.5229 8.91379 12.5229C8.82297 12.5229 8.73389 12.5479 8.65629 12.5951L5.46257 14.5326C5.3783 14.5829 5.2811 14.6073 5.18307 14.6027C5.08504 14.5981 4.99053 14.5648 4.9113 14.5069C4.83207 14.449 4.77163 14.3691 4.73752 14.277C4.7034 14.185 4.69712 14.085 4.71945 13.9895L5.56444 10.3307C5.58498 10.2418 5.58107 10.1491 5.55312 10.0622C5.52517 9.97541 5.47422 9.89778 5.4057 9.83758L2.58635 7.37821C2.51097 7.31414 2.45629 7.22916 2.42923 7.13401C2.40217 7.03886 2.40394 6.93783 2.43431 6.84368C2.46469 6.74954 2.52231 6.66652 2.59988 6.60514C2.67745 6.54375 2.77149 6.50676 2.87009 6.49883L6.58631 6.17758C6.67698 6.16951 6.76372 6.13683 6.83718 6.08308C6.91064 6.02934 6.96804 5.95655 7.00318 5.87258L8.45504 2.41258C8.49382 2.32313 8.55791 2.24696 8.63941 2.19346C8.72092 2.13996 8.81629 2.11145 8.91379 2.11145C9.01129 2.11145 9.10666 2.13996 9.18817 2.19346C9.26967 2.24696 9.33376 2.32313 9.37254 2.41258Z" fill="#002BE2"/>
</g>
</svg>
