<svg width="25" height="25" viewBox="0 0 25 25" fill="none" xmlns="http://www.w3.org/2000/svg">
<path d="M22.9433 22.2908L20.932 20.2795M12.3839 21.2851C13.6385 21.2851 14.8808 21.038 16.0399 20.5579C17.1991 20.0778 18.2523 19.374 19.1394 18.4869C20.0266 17.5997 20.7303 16.5465 21.2104 15.3874C21.6905 14.2283 21.9377 12.986 21.9377 11.7313C21.9377 10.4767 21.6905 9.23438 21.2104 8.07526C20.7303 6.91615 20.0266 5.86294 19.1394 4.97579C18.2523 4.08864 17.1991 3.38491 16.0399 2.90479C14.8808 2.42467 13.6385 2.17755 12.3839 2.17755C9.85005 2.17755 7.42 3.18411 5.62832 4.97579C3.83664 6.76748 2.83008 9.19752 2.83008 11.7313C2.83008 14.2652 3.83664 16.6952 5.62832 18.4869C7.42 20.2786 9.85005 21.2851 12.3839 21.2851Z" stroke="#F9F9F9" stroke-width="1.5" stroke-linecap="round" stroke-linejoin="round"/>
</svg>
